<?xml version="1.0" standalone="no"?><svg xmlns="http://www.w3.org/2000/svg" viewBox="0 0 1440 320"><path fill="#eb7a39" fill-opacity="1" d="M0,64L17.1,53.3C34.3,43,69,21,103,48C137.1,75,171,149,206,170.7C240,192,274,160,309,133.3C342.9,107,377,85,411,106.7C445.7,128,480,192,514,224C548.6,256,583,256,617,261.3C651.4,267,686,277,720,272C754.3,267,789,245,823,224C857.1,203,891,181,926,170.7C960,160,994,160,1029,149.3C1062.9,139,1097,117,1131,106.7C1165.7,96,1200,96,1234,112C1268.6,128,1303,160,1337,149.3C1371.4,139,1406,85,1423,58.7L1440,32L1440,0L1422.9,0C1405.7,0,1371,0,1337,0C1302.9,0,1269,0,1234,0C1200,0,1166,0,1131,0C1097.1,0,1063,0,1029,0C994.3,0,960,0,926,0C891.4,0,857,0,823,0C788.6,0,754,0,720,0C685.7,0,651,0,617,0C582.9,0,549,0,514,0C480,0,446,0,411,0C377.1,0,343,0,309,0C274.3,0,240,0,206,0C171.4,0,137,0,103,0C68.6,0,34,0,17,0L0,0Z"></path></svg>